<svg xmlns="http://www.w3.org/2000/svg"  viewBox="0 0 40 40" width="80px" height="80px"><path fill="#98ccfd" d="M2.5 2.5H37.5V37.5H2.5z"/><path fill="#4788c7" d="M37,3v34H3V3H37 M38,2H2v36h36V2L38,2z"/><g><path fill="#fff" d="M21.99,17.861c-1.648-0.601-2.55-1.069-2.55-1.804c0-0.624,0.519-0.98,1.444-0.98 c1.693,0,3.431,0.344,4.627,0.923L26,12.181C25.052,11.735,23.299,11,20.613,11c-1.896,0-3.476,0.49-4.604,1.403 c-1.174,0.958-1.783,2.339-1.783,4.01c0,3.03,1.873,4.322,4.92,5.413c1.964,0.691,2.618,1.181,2.618,1.938 C21.764,24.5,21.151,25,20,25c-1.422,0-3.438-0.375-5-1l-1,3.507C15.309,28.243,17.747,29,20.274,29 c2.009,0,3.679-0.468,4.807-1.359C26.345,26.661,27,25.213,27,23.342C27,20.245,25.082,18.953,21.99,17.861L21.99,17.861z"/></g></svg>